<svg width="31" height="31" viewBox="0 0 31 31" fill="none" xmlns="http://www.w3.org/2000/svg">
<path d="M26.4602 4.53981C23.5326 1.61232 19.6402 0 15.5 0C11.3598 0 7.46742 1.61232 4.53981 4.53981C1.61232 7.46742 0 11.3598 0 15.5C0 19.6402 1.61232 23.5326 4.53981 26.4602C7.46742 29.3877 11.3598 31 15.5 31C19.6402 31 23.5326 29.3877 26.4602 26.4602C29.3877 23.5326 31 19.6402 31 15.5C31 11.3598 29.3877 7.46742 26.4602 4.53981ZM15.5 29.0825C8.01059 29.0825 1.91753 22.9894 1.91753 15.5C1.91753 8.01059 8.01059 1.91753 15.5 1.91753C22.9894 1.91753 29.0825 8.01059 29.0825 15.5C29.0825 22.9894 22.9894 29.0825 15.5 29.0825Z" fill="white"/>
<path d="M7.3125 17.2913L8.66615 18.6495L15.4996 11.8382L22.3331 18.6495L23.6868 17.2913L15.4996 9.13086L7.3125 17.2913Z" fill="white"/>
</svg>
