<svg width="76" height="26" viewBox="0 0 76 26" fill="none" xmlns="http://www.w3.org/2000/svg">
<path d="M29.8438 11.3187V5.38965H32.3447C34.1961 5.38965 35.5603 6.49121 35.5603 8.33788C35.5603 10.1846 34.2285 11.2862 32.3772 11.2862H29.8438V11.3187ZM34.0012 8.37033C34.0012 7.46317 33.449 6.75043 32.3772 6.75043H31.4028V9.99023H32.3772C33.3841 9.99023 34.0012 9.24513 34.0012 8.37033Z" fill="white"/>
<path d="M36.168 8.35414C36.168 6.54784 37.5441 5.32227 39.3789 5.32227C41.2137 5.32227 42.557 6.58015 42.557 8.35414C42.557 10.1281 41.1809 11.386 39.3789 11.386C37.5113 11.386 36.168 10.1281 36.168 8.35414ZM40.9843 8.35414C40.9843 7.38653 40.3618 6.64466 39.3789 6.64466C38.396 6.64466 37.7406 7.38653 37.7406 8.35414C37.7406 9.32176 38.3632 10.0636 39.3789 10.0636C40.329 10.0636 40.9843 9.28945 40.9843 8.35414Z" fill="white"/>
<path d="M46.8616 11.3187L45.8393 9.34229H45.0479V11.3187H43.498V5.38965H46.4988C47.8179 5.38965 48.5763 6.26435 48.5763 7.36592C48.5763 8.40268 47.9497 8.95346 47.3892 9.14788L48.6093 11.3187H46.8616ZM47.0265 7.36592C47.0265 6.97719 46.6966 6.75043 46.268 6.75043H45.0479V8.01396H46.268C46.6637 8.01396 47.0265 7.78719 47.0265 7.36592Z" fill="white"/>
<path d="M49.1465 8.35414C49.1465 6.54784 50.5371 5.32227 52.3912 5.32227C54.2453 5.32227 55.6028 6.58015 55.6028 8.35414C55.6028 10.1281 54.2122 11.386 52.3912 11.386C50.5371 11.386 49.1465 10.1281 49.1465 8.35414ZM54.0466 8.35414C54.0466 7.38653 53.4175 6.64466 52.4244 6.64466C51.4311 6.64466 50.7688 7.38653 50.7688 8.35414C50.7688 9.32176 51.3979 10.0636 52.4244 10.0636C53.3845 10.0636 54.0466 9.28945 54.0466 8.35414Z" fill="white"/>
<path d="M60.5153 11.3187V8.95346H58.0198V11.3187H56.4766V5.38965H58.0198V7.62513H60.5153V5.422H62.0586V11.3187H60.5153Z" fill="white"/>
<path d="M63 8.35414C63 6.54784 64.3762 5.32227 66.2109 5.32227C68.0457 5.32227 69.389 6.58015 69.389 8.35414C69.389 10.1281 68.0129 11.386 66.2109 11.386C64.3762 11.386 63 10.1281 63 8.35414ZM67.8164 8.35414C67.8164 7.38653 67.1939 6.64466 66.1781 6.64466C65.1952 6.64466 64.54 7.38653 64.54 8.35414C64.54 9.32176 65.1625 10.0636 66.1781 10.0636C67.1939 10.0636 67.8164 9.28945 67.8164 8.35414Z" fill="white"/>
<path d="M71.6635 11.3187L69.3906 5.38965H71.1364L72.6187 9.6663L74.1011 5.38965H75.8469L73.5741 11.2862H71.6635V11.3187Z" fill="white"/>
<path d="M29.8438 20.1448V14.2158H32.3447C34.1961 14.2158 35.5603 15.3234 35.5603 17.1804C35.5603 19.0373 34.2285 20.1448 32.3772 20.1448H29.8438ZM34.0012 17.1804C34.0012 16.2682 33.449 15.5515 32.3772 15.5515H31.4028V18.8092H32.3772C33.3841 18.8092 34.0012 18.0599 34.0012 17.1804Z" fill="white"/>
<path d="M36.5039 20.1448V14.2158H38.0507V20.1448H36.5039Z" fill="white"/>
<path d="M45.7852 20.1448V14.2158H47.332V20.1448H45.7852Z" fill="white"/>
<path d="M60.7832 20.1448V14.2158H62.33V20.1448H60.7832Z" fill="white"/>
<path d="M61.0513 18.5957L64.8848 18.5957L64.8848 20.1453L61.0513 20.1453L61.0513 18.5957Z" fill="white"/>
<path d="M51.6348 14.215L51.6348 20.144L50.0879 20.144L50.0879 14.215L51.6348 14.215Z" fill="white"/>
<path d="M53.3827 15.7646L48.2715 15.7646L48.2715 14.215L53.3827 14.215L53.3827 15.7646Z" fill="white"/>
<path d="M57.567 14.217L59.8398 20.146L58.094 20.146L56.6117 15.8693L55.1294 20.146L53.3836 20.146L55.6564 14.2494L57.567 14.2494L57.567 14.217Z" fill="white"/>
<path d="M55.1332 17.4512L57.8906 17.4512L57.8906 19.0008L55.1332 19.0008L55.1332 17.4512Z" fill="white"/>
<path d="M38.9922 17.1817C38.9922 15.3101 40.4225 14.1484 42.2102 14.1484C43.543 14.1484 44.3231 14.8583 44.7457 15.5683L43.478 16.2137C43.2504 15.8264 42.7954 15.4715 42.2102 15.4715C41.235 15.4715 40.5524 16.2137 40.5524 17.1817C40.5524 18.1498 41.235 18.892 42.2102 18.892C42.6328 18.892 43.0879 18.7307 43.3155 18.5371V18.0853H41.9827V16.7622H44.8432V19.1179C44.1931 19.8278 43.3479 20.2796 42.2102 20.2796C40.4549 20.2473 38.9922 19.0533 38.9922 17.1817Z" fill="white"/>
<path d="M10.2391 0H0V25.4678H10.3047C18.9684 25.4678 24.5474 20.4519 24.5474 12.7177C24.5145 4.98359 18.9356 0 10.2391 0ZM9.97653 20.3548H5.41487V5.46899H10.0421C15.3913 5.46899 19.1325 7.54006 19.1325 12.75C19.1325 16.9246 15.7195 20.3548 9.97653 20.3548Z" fill="white"/>
<path d="M11.0046 9.70166H9.81836V15.7654H11.0046C13.344 15.7654 14.7278 14.3711 14.7278 12.6525C14.6948 10.5447 13.1793 9.70166 11.0046 9.70166Z" fill="white"/>
</svg>
