<svg width="291" height="111" viewBox="0 0 291 111" fill="none" xmlns="http://www.w3.org/2000/svg">
<path d="M13.9139 59.5865L13.3507 57.7014L198.904 2.12771L199.468 4.01287L13.9139 59.5865Z" stroke="#CC9410"/>
<path d="M185.405 21.0275V14.8894V14.2177L184.762 14.4104L28.5389 61.1952L28.1823 61.302V61.6742V68.5818L15.3768 62.8161L198.724 7.9159L185.405 21.0275Z" stroke="#CC9410"/>
<path d="M66.0586 3.4314H93.7401V30.3165L66.0586 38.6565V3.4314Z" stroke="#CC9410"/>
<path d="M61.875 2.43142V0.725586H97.7513V2.43142H61.875Z" stroke="#CC9410"/>
<path d="M262.818 59.2304V58.8587L262.462 58.7516L185.404 35.5536V32.9315L274.381 59.6487L263.009 62.8157L262.818 62.7679V59.2304Z" stroke="#CC9410"/>
<path d="M185.404 27.5201L279.479 55.8118L278.897 57.735L185.404 29.6182V27.5201Z" stroke="#CC9410"/>
<mask id="path-7-inside-1_366_2213" fill="white">
<path d="M260.226 105.666V60.8017L184.904 38.1949V105.754H182.812V17.7701L173.746 20.476V105.666H171.566V21.1743L135.475 31.9976V105.754H133.382V32.6959L96.3316 43.6938V105.666H94.2394V44.3048L65.5578 52.8588V105.666H63.3784V53.5571L42.0198 59.9289V105.666H39.9275V60.5399L30.861 63.2457V105.666H0V110.205H291V105.666H260.226ZM247.585 87.2491H239.478V66.5626H247.585V87.2491ZM237.211 87.2491H229.104V66.5626H237.211V87.2491ZM226.924 87.2491H219.253V66.5626H226.924V87.2491ZM216.986 87.2491H208.878V66.5626H216.986V87.2491ZM197.807 66.6498H206.612V87.3364H197.807V66.6498ZM149.51 75.4656H157.618V101.389H149.51V75.4656ZM159.884 75.4656H167.294V101.389H159.884V75.4656ZM167.294 67.5227H159.884V29.1172L167.294 26.9351V67.5227ZM157.618 67.5227H149.51V32.2595L157.618 29.8155V67.5227ZM139.746 35.1399L147.331 32.8705V67.5227H139.746V35.1399ZM139.746 75.4656H147.331V101.389H139.746V75.4656ZM110.803 75.4656H118.911V101.389H110.803V75.4656ZM121.09 75.4656H129.023V101.389H121.09V75.4656ZM129.111 67.5227H121.177V40.7261L129.111 38.3694V67.5227ZM118.911 67.5227H110.803V43.7811L118.911 41.3371V67.5227ZM100.603 46.8361L108.537 44.4794V67.5227H100.603V46.8361ZM100.603 75.4656H108.537V101.389H100.603V75.4656ZM53.7888 75.4656H59.1067V101.389H53.7888V75.4656ZM59.1067 67.5227H53.7888V60.889L59.1067 59.3179V67.5227ZM46.2915 63.0712L51.6093 61.5V67.4354H46.2915V63.0712ZM46.2915 75.4656H51.6093V101.389H46.2915V75.4656Z"/>
</mask>
<path d="M260.226 105.666V60.8017L184.904 38.1949V105.754H182.812V17.7701L173.746 20.476V105.666H171.566V21.1743L135.475 31.9976V105.754H133.382V32.6959L96.3316 43.6938V105.666H94.2394V44.3048L65.5578 52.8588V105.666H63.3784V53.5571L42.0198 59.9289V105.666H39.9275V60.5399L30.861 63.2457V105.666H0V110.205H291V105.666H260.226ZM247.585 87.2491H239.478V66.5626H247.585V87.2491ZM237.211 87.2491H229.104V66.5626H237.211V87.2491ZM226.924 87.2491H219.253V66.5626H226.924V87.2491ZM216.986 87.2491H208.878V66.5626H216.986V87.2491ZM197.807 66.6498H206.612V87.3364H197.807V66.6498ZM149.51 75.4656H157.618V101.389H149.51V75.4656ZM159.884 75.4656H167.294V101.389H159.884V75.4656ZM167.294 67.5227H159.884V29.1172L167.294 26.9351V67.5227ZM157.618 67.5227H149.51V32.2595L157.618 29.8155V67.5227ZM139.746 35.1399L147.331 32.8705V67.5227H139.746V35.1399ZM139.746 75.4656H147.331V101.389H139.746V75.4656ZM110.803 75.4656H118.911V101.389H110.803V75.4656ZM121.09 75.4656H129.023V101.389H121.09V75.4656ZM129.111 67.5227H121.177V40.7261L129.111 38.3694V67.5227ZM118.911 67.5227H110.803V43.7811L118.911 41.3371V67.5227ZM100.603 46.8361L108.537 44.4794V67.5227H100.603V46.8361ZM100.603 75.4656H108.537V101.389H100.603V75.4656ZM53.7888 75.4656H59.1067V101.389H53.7888V75.4656ZM59.1067 67.5227H53.7888V60.889L59.1067 59.3179V67.5227ZM46.2915 63.0712L51.6093 61.5V67.4354H46.2915V63.0712ZM46.2915 75.4656H51.6093V101.389H46.2915V75.4656Z" stroke="#CC9410" stroke-width="2" mask="url(#path-7-inside-1_366_2213)"/>
</svg>
