<svg width="310" height="116" viewBox="0 0 310 116" fill="none" xmlns="http://www.w3.org/2000/svg">
<path d="M5.83054 54.5448L215.178 5.03635V0.632036L5.83054 50.1404V54.5448Z" stroke="#CC9410"/>
<path d="M303.695 44.7293V40.3251L208.469 17.7858V22.1901L303.695 44.7293Z" stroke="#CC9410"/>
<path d="M172.178 53.4383H172.678V53.9383V104.636V105.136H172.178H162.47H161.97V104.636V53.9383V53.4383H162.47H172.178ZM148.574 105.136H148.074V104.636V53.9383V53.4383H148.574H159.9H160.4V53.9383V104.636V105.136H159.9H148.574ZM148.574 47.9581H148.074V47.4581V38.5955V38.1996L148.459 38.1088L159.786 35.4405L160.4 35.2957V35.9272V47.4581V47.9581H159.9H148.574ZM162.565 47.9581H162.065V47.4581V35.3554V34.9595L162.451 34.8687L172.159 32.5816L172.774 32.4368V33.0683V47.4581V47.9581H172.274H162.565ZM185.676 29.3412L186.289 29.1983V29.8282V47.4581V47.9581H185.789H174.748H174.248V47.4581V32.4012V32.0043L174.635 31.9142L185.676 29.3412ZM185.789 53.4383H186.289V53.9383V104.636V105.136H185.789H174.748H174.248V104.636V53.9383V53.4383H174.748H185.789ZM192.047 15.2133L142.887 26.888V111.951H192.047V15.2133Z" stroke="#CC9410"/>
<path d="M140.58 112.95H140.08V112.45V27.5043L129.277 30.0337V112.45V112.95H128.777H121.187V115.476H213.178V112.95H206.159H205.659V112.45V11.9709L194.856 14.5004V112.45V112.95H194.356H140.58Z" stroke="#CC9410"/>
<path d="M283.254 105.136H282.754V104.636V44.4225L208.467 26.8387V104.136H208.562V104.636V107.281H309.5V105.136H296.865H296.365V104.636V47.5683L285.563 45.0388V104.636V105.136H285.063H283.254ZM217.105 96.0826H216.605V95.5826V37.6422V37.0091L217.22 37.1558L234.829 41.3488L235.213 41.4403V41.8352V95.5826V96.0826H234.713H217.105ZM237.568 96.0826H237.068V95.5826V42.5023V41.8682L237.685 42.0161L253.58 45.8279L253.963 45.9199V46.3141V95.5826V96.0826H253.463H237.568ZM274.327 50.7829L274.712 50.8737V51.2696V95.6779V96.1779H274.212H256.414H255.914V95.6779V47.0765V46.4451L256.528 46.5899L274.327 50.7829Z" stroke="#CC9410"/>
<path d="M14.5875 104.636V105.136H14.0875H0.500916V107.281H126.471V104.636V30.6503L28.1982 53.8571V104.636V105.136H27.6982H25.8898H25.3898V104.636V54.5685L14.5875 57.098V104.636ZM32.909 68.5183V68.0183H33.409H53.8727H53.9678H54.4678V68.5183V104.445V104.945H53.9678H52.3498H51.8498V104.445V70.7337H35.5271V104.445V104.945H35.0271H33.409H32.909V104.445V68.5183ZM41.2138 72.4973H41.5704H41.7138H42.0704H45.2113H45.5679H45.7113H46.0679H49.5896H50.0896V72.9973V83.9564V84.4564H49.5896H46.0679H45.7113H45.5679H45.2113H42.0704H41.7138H41.5704H41.2138H37.6921H37.1921V83.9564V72.9973V72.4973H37.6921H41.2138ZM78.2192 46.4946L78.8339 46.3498V46.9812V95.5826V96.0826H78.3339H60.5352H60.0352V95.5826V51.1743V50.7784L60.4206 50.6876L78.2192 46.4946ZM81.2844 96.0826H80.7844V95.5826V46.4095V46.0152L81.1678 45.9232L97.0628 42.1114L97.6794 41.9635V42.5976V95.5826V96.0826H97.1794H81.2844ZM117.527 37.251L118.143 37.1044V37.7374V95.6779V96.1779H117.643H100.035H99.5348V95.6779V41.9305V41.5356L99.919 41.4441L117.527 37.251Z" stroke="#CC9410"/>
</svg>
