<svg width="308" height="103" viewBox="0 0 308 103" fill="none" xmlns="http://www.w3.org/2000/svg">
<path d="M307.499 34.8586L210.933 5.23012L210.787 5.18517L210.64 5.23005L182.246 13.9253L182.246 13.9255L174.354 16.352L174.353 16.3521L114.074 34.8585V30.8503L166.657 14.8818L168.218 14.4077L166.659 13.9257L141.153 6.03931L141.006 5.99384L140.859 6.03895L1.6543 48.7106V44.7021L141.006 2.38844L174.356 12.4555L174.501 12.4993L174.646 12.4553L210.787 1.47861L307.499 30.8503V34.8586Z" stroke="#CC9410"/>
<path d="M255.332 44.8367V89.6331H244.686V20.0334L286.613 32.8713V89.6331H275.967V50.9031V50.5343L275.614 50.4254L255.979 44.3589L255.332 44.1589V44.8367Z" stroke="#CC9410"/>
<path d="M140.09 43.8539L139.737 43.9628V44.3316V81.4383V81.9383H140.237H150.055H150.555V81.4383V41.2984V40.6206L149.907 40.8207L140.09 43.8539ZM152.41 40.1129L152.057 40.2218V40.5907V81.5394V82.0394H152.557H162.375H162.875V81.5394V37.5574V36.8796L162.227 37.0797L152.41 40.1129ZM164.73 36.2708L164.377 36.3797V36.7485V81.5394V82.0394H164.877H174.695H175.195V81.5394V33.7153V33.0375L174.547 33.2376L164.73 36.2708ZM177.146 32.4287L176.794 32.5376V32.9064V81.4383V81.9383H177.294H187.111H187.611V81.4383V29.8732V29.1954L186.963 29.3955L177.146 32.4287ZM189.466 28.6877L189.114 28.7966V29.1654V81.5394V82.0394H189.614H199.431H199.931V81.5394V26.1322V25.4544L199.283 25.6545L189.466 28.6877ZM210.789 82.0394H211.289V81.5394V22.5934V21.916L210.641 22.1156L201.786 24.8455L201.434 24.9542V25.3233V81.5394V82.0394H201.934H210.789ZM233.311 82.0394H233.81L233.811 81.5404L233.907 29.1664L233.908 28.7891L233.545 28.6849L222.284 25.4494L221.644 25.2654L221.646 25.9317L221.839 81.5412L221.84 82.0394H222.339H233.311ZM241.666 19.02V97.8234H123.027V36.5114L210.789 9.56789L241.666 19.02Z" stroke="#CC9410"/>
<path d="M154.575 14.3868L140.778 18.1677L140.778 18.1675L140.765 18.1713L110.639 27.271L110.284 27.3784V27.7496V39.4782V40.1401L110.92 39.9591L118.465 37.8146V88.42H47.9512V39.0383L138.34 11.147L138.799 11.0506L138.824 11.0453L138.848 11.0375L140.916 10.3765L154.575 14.3868ZM105.875 76.9838H106.375V76.4838V35.2317V34.552L105.726 34.7543L99.566 36.6754L99.2149 36.7849V37.1527V76.4838V76.9838H99.7149H105.875ZM97.9824 76.9838H98.4824V76.4838V37.6582V36.9793L97.834 37.1808L91.0003 39.304L90.6487 39.4133V39.7815V76.4838V76.9838H91.1487H97.9824ZM89.3199 76.9838H89.8199V76.4838V40.3882V39.7092L89.1715 39.9107L82.3378 42.0339L81.9862 42.1432V42.5114V76.4838V76.9838H82.4862H89.3199ZM80.6574 76.9838H81.1574V76.4838V43.017V42.338L80.509 42.5395L73.6753 44.6628L73.3237 44.772V45.1402V76.4838V76.9838H73.8237H80.6574ZM71.9949 76.9838H72.4949V76.4838V45.6458V44.9669L71.8465 45.1683L65.0128 47.2916L64.6612 47.4008V47.769V76.4838V76.9838H65.1612H71.9949ZM56.3503 49.9204L55.9987 50.0296V50.3979V76.3826V76.8826H56.4987H63.3324H63.8324V76.3826V48.2746V47.5957L63.184 47.7971L56.3503 49.9204Z" stroke="#CC9410"/>
<path d="M289.039 98.9245H289.539V98.4245V33.7891L298.549 36.6104V98.4245V98.9245H299.049H307.5V101.969H114.557V98.9245H244.187H244.687V98.4245V92.6558H286.614V98.4245V98.9245H287.114H289.039Z" stroke="#CC9410"/>
<path d="M259.221 50.5591L272.081 54.3116V89.6334H259.221V50.5591Z" stroke="#CC9410"/>
<path d="M22.8301 11.0612H45.1225V27.2778L22.8301 34.0515V11.0612Z" stroke="#CC9410"/>
<path d="M19.9414 6.40991H48.0089V10.0609H19.9414V6.40991Z" stroke="#CC9410"/>
<path d="M45.1225 88.9205V89.4205H45.6225H118.561V91.7571H0.5V89.4205H10.395H10.895V88.9205V50.5671L19.905 47.8369V88.9205V89.4205H20.405H22.33H22.83V88.9205V46.9254L45.1225 40.0549V88.9205Z" stroke="#CC9410"/>
</svg>
