<svg width="34" height="40" viewBox="0 0 34 40" fill="none" xmlns="http://www.w3.org/2000/svg">
<path d="M16.9881 0C16.7999 0 16.6035 0 16.4153 0.00818331C8.34656 0.286416 1.67717 6.55483 0.90794 14.5827C0.760641 16.1375 0.83429 17.7005 1.12071 19.1899C1.12071 19.1899 1.14526 19.3781 1.23527 19.73C1.48077 20.8347 1.84902 21.9067 2.31547 22.9051C3.97668 26.8412 7.61825 32.9051 15.5233 39.4681C15.9407 39.8118 16.4644 40 17.0045 40C17.5446 40 18.0683 39.8118 18.4857 39.4681C26.3826 32.9133 30.0241 26.8412 31.6772 22.9378C32.1518 21.9149 32.5201 20.8347 32.7655 19.7381C32.8146 19.5417 32.8474 19.3781 32.8719 19.2226C33.0683 18.216 33.1665 17.1849 33.1665 16.1538C33.1502 7.25041 25.8998 0 16.9881 0ZM30.8834 18.8789C30.8834 18.8953 30.8588 19.0344 30.8016 19.2881C30.5806 20.2537 30.2615 21.1948 29.8359 22.1277C28.2565 25.8592 24.7868 31.6285 17.2009 37.9214C17.1273 37.9787 17.0536 37.9951 16.9963 37.9951C16.9472 37.9951 16.8654 37.9787 16.7917 37.9214C9.20581 31.6203 5.72791 25.8511 4.14035 22.0949C3.723 21.1948 3.40385 20.2537 3.1829 19.2799C3.1338 19.0671 3.10925 18.9362 3.10107 18.8953C3.10107 18.8789 3.09288 18.8625 3.09288 18.8462C2.8392 17.5123 2.77373 16.1375 2.90467 14.7791C3.58388 7.74959 9.41858 2.25859 16.489 2.01309C24.5168 1.73486 31.1453 8.18331 31.1453 16.162C31.1453 17.0622 31.0552 17.9624 30.8834 18.8789Z" fill="#CC9410"/>
</svg>
