<svg width="40" height="40" viewBox="0 0 40 40" fill="none" xmlns="http://www.w3.org/2000/svg">
<path d="M20 0C8.97219 0 0 8.97219 0 20C0 31.0278 8.97219 40 20 40C23.789 40 27.478 38.9343 30.6677 36.9202L29.3322 34.806C26.5429 36.5687 23.3154 37.5001 20 37.5001C10.3504 37.5001 2.49999 29.6498 2.49999 20.0001C2.49999 10.3504 10.3503 2.49999 20 2.49999C29.6497 2.49999 37.5 10.3503 37.5 20V21.25C37.5 23.3179 35.8179 25.0001 33.75 25.0001C31.6821 25.0001 30 23.3179 30 21.25V12.5H27.5V13.456C25.6655 11.356 23.0008 10 20 10C14.4861 10 10 14.4861 10 20C10 25.5139 14.4861 30 20 30C23.7358 30 26.9609 27.9167 28.6775 24.8736C29.8125 26.4572 31.6575 27.5 33.75 27.5C37.196 27.5 40 24.696 40 21.25V19.9999C40 8.97219 31.0278 0 20 0ZM20 27.5C15.8642 27.5 12.5 24.1357 12.5 20C12.5 15.8643 15.8643 12.5 20 12.5C24.1357 12.5 27.5 15.8643 27.5 20C27.5 24.1357 24.1357 27.5 20 27.5Z" fill="#CC9410"/>
</svg>
