<svg width="40" height="40" viewBox="0 0 40 40" fill="none" xmlns="http://www.w3.org/2000/svg">
<path d="M31.6128 24.7786C30.7939 23.9259 29.8062 23.47 28.7593 23.47C27.7209 23.47 26.7247 23.9175 25.8721 24.7701L23.2043 27.4294C22.9848 27.3112 22.7653 27.2015 22.5543 27.0917C22.2503 26.9398 21.9633 26.7963 21.7185 26.6443C19.2196 25.0572 16.9486 22.9888 14.7705 20.3126C13.7152 18.9787 13.006 17.8559 12.4911 16.7162C13.1833 16.083 13.8249 15.4245 14.4497 14.7914C14.6861 14.555 14.9224 14.3101 15.1588 14.0738C16.9317 12.3009 16.9317 10.0046 15.1588 8.23171L12.8541 5.92697C12.5924 5.66526 12.3222 5.3951 12.0689 5.12495C11.5624 4.60153 11.0306 4.06122 10.4818 3.55469C9.6629 2.74423 8.6836 2.31367 7.65364 2.31367C6.62368 2.31367 5.62749 2.74423 4.78327 3.55469L4.76638 3.57157L1.89601 6.46727C0.815398 7.54788 0.199112 8.86488 0.0640356 10.3929C-0.138579 12.8581 0.587457 15.1544 1.14465 16.6571C2.5123 20.3464 4.55533 23.7655 7.60299 27.4294C11.3007 31.8447 15.7498 35.3314 20.832 37.7881C22.7738 38.7083 25.3655 39.7974 28.2612 39.9831C28.4385 39.9915 28.6243 40 28.7931 40C30.7433 40 32.3811 39.2993 33.6643 37.9063C33.6727 37.8894 33.6896 37.881 33.6981 37.8641C34.1371 37.3322 34.6436 36.851 35.1755 36.336C35.5385 35.9899 35.9099 35.6269 36.273 35.247C37.1087 34.3774 37.5477 33.3644 37.5477 32.326C37.5477 31.2791 37.1003 30.2745 36.2476 29.4303L31.6128 24.7786ZM34.6352 33.6683C34.6267 33.6683 34.6267 33.6767 34.6352 33.6683C34.3059 34.0229 33.9682 34.3437 33.6052 34.6982C33.0564 35.2217 32.4993 35.7704 31.9758 36.3867C31.1232 37.2985 30.1185 37.729 28.8015 37.729C28.6749 37.729 28.5398 37.729 28.4132 37.7206C25.9058 37.5602 23.5758 36.5809 21.8282 35.7451C17.0499 33.4319 12.8541 30.1479 9.36742 25.9858C6.48861 22.516 4.56377 19.308 3.28898 15.8635C2.50385 13.7614 2.21682 12.1236 2.34345 10.5787C2.42787 9.59091 2.80778 8.77201 3.50848 8.07131L6.3873 5.19249C6.80097 4.80414 7.23997 4.59309 7.67053 4.59309C8.20239 4.59309 8.63294 4.91389 8.9031 5.18405L8.92842 5.20937C9.4434 5.69058 9.93305 6.18868 10.448 6.72054C10.7097 6.99069 10.9799 7.26085 11.25 7.53944L13.5548 9.84418C14.4497 10.7391 14.4497 11.5664 13.5548 12.4613C13.31 12.7061 13.0736 12.9509 12.8288 13.1873C12.1196 13.9134 11.4442 14.5887 10.7097 15.2472C10.6929 15.2641 10.676 15.2726 10.6675 15.2894C9.9415 16.0155 10.0766 16.7246 10.2285 17.2058L10.2539 17.2818C10.8533 18.7339 11.6975 20.1015 12.9807 21.7309L12.9892 21.7393C15.3192 24.6097 17.7759 26.8469 20.4859 28.5607C20.832 28.7802 21.1866 28.9575 21.5243 29.1263C21.8282 29.2783 22.1153 29.4218 22.3601 29.5738C22.3939 29.5907 22.4276 29.616 22.4614 29.6329C22.7484 29.7764 23.0186 29.8439 23.2972 29.8439C23.9979 29.8439 24.4369 29.4049 24.5804 29.2614L27.4677 26.3742C27.7547 26.0871 28.2106 25.741 28.7424 25.741C29.2659 25.741 29.6964 26.0702 29.9581 26.3573L29.975 26.3742L34.6267 31.0258C35.4963 31.887 35.4963 32.7734 34.6352 33.6683ZM21.6172 9.51493C23.829 9.88639 25.8383 10.9332 27.4423 12.5373C29.0464 14.1413 30.0848 16.1506 30.4647 18.3624C30.5575 18.9196 31.0387 19.308 31.5875 19.308C31.655 19.308 31.7141 19.2995 31.7817 19.2911C32.4064 19.1898 32.8201 18.5988 32.7188 17.9741C32.2629 15.2979 30.9965 12.8581 29.0632 10.9248C27.13 8.99151 24.6902 7.72517 22.014 7.26929C21.3892 7.16798 20.8067 7.58165 20.697 8.19794C20.5872 8.81423 20.9924 9.41363 21.6172 9.51493ZM39.9538 17.6448C39.2024 13.238 37.1256 9.2279 33.9344 6.03672C30.7433 2.84554 26.7332 0.768738 22.3263 0.0173754C21.71 -0.0923741 21.1275 0.32974 21.0178 0.946026C20.9165 1.57075 21.3301 2.15327 21.9549 2.26302C25.889 2.92996 29.4769 4.7957 32.3304 7.64075C35.1839 10.4942 37.0412 14.0822 37.7081 18.0163C37.801 18.5735 38.2822 18.9618 38.831 18.9618C38.8985 18.9618 38.9576 18.9534 39.0251 18.945C39.6414 18.8521 40.0635 18.2611 39.9538 17.6448Z" fill="#CC9410"/>
</svg>
