<svg width="31" height="31" viewBox="0 0 31 31" fill="none" xmlns="http://www.w3.org/2000/svg">
<path d="M13.3496 18.0003L17.6488 15.506L13.3496 12.9995V18.0003Z" fill="white"/>
<path d="M15.5 0C12.4344 0 9.43763 0.909059 6.88867 2.61222C4.33971 4.31538 2.35303 6.73615 1.17987 9.56841C0.00671587 12.4007 -0.300236 15.5172 0.297835 18.5239C0.895906 21.5306 2.37214 24.2924 4.53985 26.4602C6.70757 28.6279 9.4694 30.1041 12.4761 30.7022C15.4828 31.3002 18.5993 30.9933 21.4316 29.8201C24.2639 28.647 26.6846 26.6603 28.3878 24.1113C30.091 21.5624 31 18.5656 31 15.5C31 11.3891 29.367 7.44666 26.4602 4.53985C23.5533 1.63303 19.6109 0 15.5 0ZM23.6579 18.2431C23.6582 18.6485 23.5786 19.05 23.4236 19.4246C23.2687 19.7992 23.0414 20.1396 22.7548 20.4263C22.4683 20.7131 22.128 20.9406 21.7535 21.0958C21.379 21.251 20.9776 21.3309 20.5722 21.3309H10.4278C10.0224 21.3309 9.62102 21.251 9.24651 21.0958C8.872 20.9406 8.53174 20.7131 8.24518 20.4263C7.95862 20.1396 7.73137 19.7992 7.57641 19.4246C7.42146 19.05 7.34185 18.6485 7.34211 18.2431V12.7569C7.34185 12.3515 7.42146 11.95 7.57641 11.5754C7.73137 11.2008 7.95862 10.8604 8.24518 10.5737C8.53174 10.2869 8.872 10.0594 9.24651 9.90423C9.62102 9.74903 10.0224 9.66915 10.4278 9.66915H20.5722C20.9776 9.66915 21.379 9.74903 21.7535 9.90423C22.128 10.0594 22.4683 10.2869 22.7548 10.5737C23.0414 10.8604 23.2687 11.2008 23.4236 11.5754C23.5786 11.95 23.6582 12.3515 23.6579 12.7569V18.2431Z" fill="white"/>
</svg>
